<?xml version="1.0" standalone="no"?>
<!DOCTYPE svg PUBLIC "-//W3C//DTD SVG 20010904//EN"
 "http://www.w3.org/TR/2001/REC-SVG-20010904/DTD/svg10.dtd">
<svg version="1.0" xmlns="http://www.w3.org/2000/svg"
 width="407.000000pt" height="407.000000pt" viewBox="0 0 407.000000 407.000000"
 preserveAspectRatio="xMidYMid meet">
<metadata>
Created by potrace 1.14, written by Peter Selinger 2001-2017
</metadata>
<g transform="translate(0.000000,407.000000) scale(0.100000,-0.100000)"
fill="#000000" stroke="none">
<path d="M688 2715 c-2 -2 -25 -6 -52 -9 -62 -9 -176 -48 -231 -80 -239 -141
-373 -415 -334 -686 12 -81 32 -160 41 -160 4 0 8 -7 8 -15 0 -9 11 -33 25
-55 14 -22 25 -42 25 -45 0 -3 11 -18 25 -33 14 -15 25 -30 25 -34 0 -10 88
-92 137 -127 94 -68 228 -112 358 -117 93 -3 226 16 251 37 8 6 14 9 14 5 0
-8 90 37 145 72 46 30 56 29 99 -3 41 -30 126 -70 201 -92 78 -23 266 -23 346
-1 71 20 162 62 216 101 l41 29 47 -32 c53 -36 159 -86 201 -95 218 -44 380
-20 539 79 22 14 47 30 55 35 11 6 35 -3 85 -33 69 -42 141 -74 180 -82 11 -2
43 -8 70 -13 63 -12 204 -7 270 9 231 58 415 234 489 468 36 113 34 315 -4
407 -69 167 -112 228 -235 329 -212 175 -557 186 -792 25 -23 -16 -44 -29 -47
-29 -3 0 -29 15 -58 33 -119 75 -220 106 -362 112 -101 4 -253 -34 -328 -81
-21 -13 -40 -24 -43 -24 -3 0 -19 -10 -36 -22 -24 -18 -33 -20 -47 -10 -251
175 -552 181 -803 15 l-38 -25 -73 44 c-94 56 -141 74 -248 93 -36 7 -158 14
-162 10z m182 -170 c55 -14 154 -61 175 -81 13 -14 12 -20 -15 -59 -36 -53
-87 -177 -97 -237 -16 -93 -8 -256 16 -335 11 -39 75 -169 97 -200 15 -21 14
-23 -25 -48 -35 -22 -141 -69 -149 -66 -1 1 -12 -1 -25 -4 -40 -10 -130 -12
-182 -3 -63 11 -175 49 -175 60 0 4 -7 8 -15 8 -23 0 -167 148 -194 200 -68
131 -79 314 -26 445 62 153 170 255 325 308 84 28 209 33 290 12z m835 4 c28
-5 61 -14 75 -20 57 -26 106 -53 123 -67 16 -15 16 -16 -2 -36 -25 -26 -73
-125 -94 -191 -40 -127 -39 -293 4 -417 26 -75 79 -172 102 -189 12 -9 -28
-45 -72 -64 -20 -9 -45 -20 -56 -25 -137 -61 -362 -33 -484 59 l-24 18 20 22
c32 34 92 164 103 221 5 28 12 55 15 60 3 4 5 50 6 101 0 106 -19 202 -58 287
-14 31 -27 59 -27 62 -1 3 -11 19 -24 37 -12 17 -22 36 -22 42 0 18 75 60 153
85 77 26 172 31 262 15z m865 -2 c50 -11 154 -56 184 -80 19 -14 19 -16 -12
-64 -71 -111 -110 -248 -107 -383 2 -121 32 -226 95 -334 30 -52 38 -72 29
-82 -13 -16 -121 -68 -174 -84 -101 -29 -253 -12 -362 42 -85 42 -90 49 -60
90 37 50 83 151 93 203 2 11 8 40 13 65 14 62 5 234 -14 298 -21 69 -68 171
-96 206 -21 26 -21 28 -3 42 31 24 125 67 179 80 60 15 173 16 235 1z m873 -3
c155 -41 289 -156 355 -305 25 -58 35 -114 37 -204 4 -238 -149 -440 -389
-512 -61 -19 -193 -20 -256 -3 -56 15 -190 78 -190 89 0 5 18 40 40 77 89 152
116 321 79 493 -10 46 -24 90 -30 97 -6 8 -8 14 -5 14 7 0 -37 85 -70 135 -17
27 -17 28 2 42 29 23 139 72 182 82 58 13 188 10 245 -5z m-1383 -251 c5 -7
22 -47 36 -90 49 -141 37 -282 -34 -420 -29 -56 -37 -59 -60 -20 -38 66 -64
160 -68 247 -4 106 8 165 54 259 32 67 36 72 48 55 7 -11 18 -24 24 -31z
m-852 -19 c15 -27 29 -56 31 -64 2 -8 9 -36 16 -62 16 -57 13 -186 -4 -248 -7
-25 -13 -46 -12 -48 1 -1 -13 -30 -31 -63 l-33 -61 -22 28 c-12 15 -20 31 -17
36 3 4 1 8 -3 8 -12 0 -41 83 -50 140 -12 70 -6 174 12 237 21 73 63 155 76
151 6 -2 23 -26 37 -54z m1692 45 c0 -6 9 -23 19 -37 10 -15 19 -29 19 -32 0
-3 6 -18 12 -34 33 -86 40 -194 21 -288 -7 -32 -13 -61 -13 -65 -3 -19 -66
-128 -73 -126 -12 2 -73 122 -79 153 -2 14 -8 43 -13 65 -10 44 -9 116 2 173
9 49 53 160 73 183 18 21 32 25 32 8z"/>
</g>
</svg>
